<svg xmlns="http://www.w3.org/2000/svg" viewBox="0 0 24 24" fill="none" stroke="currentColor" stroke-width="2" stroke-linecap="round" stroke-linejoin="round">
  <!-- Bitcoin/cryptocurrency icon -->
  <path d="M11.767 12.247c-.187-1.85-1.43-2.095-3.057-2.095V8.5L7.5 8.5V10.131c-.318 0-.645.002-.967.004V8.5L5.322 8.5v1.652L4 10.153v1.165h.884c.488 0 .668.184.703.507l.002 5.552c-.022.212-.112.468-.571.469L4 17.847v1.153h1.322v1.5h1.211v-1.5c.33.002.655.002.969.002V20.5h1.21v-1.502c1.987-.061 3.382-.611 3.557-2.468.141-1.494-.562-2.162-1.684-2.433.697-.175 1.223-.677 1.362-1.714L11.767 12.247zM8.534 16.92c0 1.465-2.512 1.3-3.312 1.295V15.645c.8.007 3.312-.251 3.312 1.275zm-.307-3.866c0 1.332-2.095 1.175-2.76 1.171v-2.339c.665.003 2.76-.197 2.76 1.168z"/>
  <circle cx="12" cy="12" r="10"/>
</svg>