<svg xmlns="http://www.w3.org/2000/svg" viewBox="0 0 200 60" fill="currentColor">
  <!-- 1337 in stylized tech font -->
  <g transform="translate(10, 10)">
    <!-- Number 1 -->
    <rect x="0" y="0" width="8" height="40" fill="#00ff41"/>
    <rect x="0" y="32" width="16" height="8" fill="#00ff41"/>
    
    <!-- Number 3 -->
    <rect x="24" y="0" width="20" height="8" fill="#00ff41"/>
    <rect x="36" y="8" width="8" height="8" fill="#00ff41"/>
    <rect x="24" y="16" width="20" height="8" fill="#00ff41"/>
    <rect x="36" y="24" width="8" height="8" fill="#00ff41"/>
    <rect x="24" y="32" width="20" height="8" fill="#00ff41"/>
    
    <!-- Number 3 -->
    <rect x="52" y="0" width="20" height="8" fill="#00ff41"/>
    <rect x="64" y="8" width="8" height="8" fill="#00ff41"/>
    <rect x="52" y="16" width="20" height="8" fill="#00ff41"/>
    <rect x="64" y="24" width="8" height="8" fill="#00ff41"/>
    <rect x="52" y="32" width="20" height="8" fill="#00ff41"/>
    
    <!-- Number 7 -->
    <rect x="80" y="0" width="20" height="8" fill="#00ff41"/>
    <rect x="92" y="8" width="8" height="32" fill="#00ff41"/>
  </g>
  
  <!-- LAWYERS text in clean font -->
  <text x="110" y="35" font-family="monospace" font-size="14" fill="#00ff41" font-weight="bold">LAWYERS</text>
  
  <!-- Tech circuit pattern decoration -->
  <g opacity="0.3">
    <circle cx="5" cy="30" r="2" fill="#00ff41"/>
    <circle cx="195" cy="30" r="2" fill="#00ff41"/>
    <line x1="7" y1="30" x2="10" y2="30" stroke="#00ff41" stroke-width="1"/>
    <line x1="190" y1="30" x2="193" y2="30" stroke="#00ff41" stroke-width="1"/>
  </g>
</svg>